<?xml version="1.0"?>
<svg xmlns="http://www.w3.org/2000/svg" xmlns:xlink="http://www.w3.org/1999/xlink" version="1.1" id="Capa_1" x="0px" y="0px" viewBox="0 0 352.4 352.4" style="enable-background:new 0 0 352.4 352.4;" xml:space="preserve" width="512px" height="512px" class=""><g><g>
	<g>
		<g>
			<path d="M327,295.6c0,9.6-4,18.4-10.4,24.8c-6.4,6.4-15.2,10.4-24.8,10.4h-53.2v21.6h53.6c15.6-0.4,29.6-6.8,40-17.2     c10.4-10.4,16.4-24.4,16.4-40v-56.8H327V295.6z" data-original="#000000" class="active-path" data-old_color="#000000" fill="#3880ff"/>
			<path d="M348.6,56.4c0-15.6-6.4-29.6-16.4-40C321.8,6,307.8,0,292.2,0h-53.6v21.6h53.6c9.6,0,18.4,4,24.8,10.4     c6.4,6.4,10.4,15.2,10.4,24.8V114H349V56.4H348.6z" data-original="#000000" class="active-path" data-old_color="#000000" fill="#3880ff"/>
			<path d="M35.4,320C29,313.6,25,304.8,25,295.2v-56.8H3.4v57.2c0,15.6,6.4,29.6,16.4,40c10.8,10,24.8,16.4,40.4,16.4h53.6v-21.6     H60.2C50.6,330.4,41.8,326.4,35.4,320z" data-original="#000000" class="active-path" data-old_color="#000000" fill="#3880ff"/>
			<path d="M25.4,56.4c0-9.6,4-18.4,10.4-24.8c6.4-6.4,15.2-10.4,24.8-10.4h53.6V0h-54c-15.6,0-29.6,6.4-40,16.4     C9.8,26.8,3.8,40.8,3.8,56.4v57.2h21.6V56.4z" data-original="#000000" class="active-path" data-old_color="#000000" fill="#3880ff"/>
			<path d="M251.4,267.2c6,0,10.8-4.8,10.8-10.8c0-23.6-9.6-45.2-25.2-60.8c-7.2-7.2-16-13.2-25.2-17.2c0.8-0.8,1.6-1.2,2.4-2     c9.6-9.6,15.6-23.2,15.6-38c0-14.8-6-28.4-15.6-38c-9.6-9.6-23.2-15.6-38-15.6s-28.4,6-38,15.6c-9.6,9.6-15.6,23.2-15.6,38     c0,14.8,6,28.4,15.6,38c0.8,0.8,1.6,1.2,2.4,2c-9.6,4.4-18,10-25.2,17.2c-15.6,15.6-25.2,37.2-25.2,60.8c0,6,4.8,10.8,10.8,10.8     s10.8-4.8,10.8-10.8c0-17.6,7.2-34,18.8-45.6c11.6-11.6,28-18.8,45.6-18.8c17.6,0,34,7.2,45.6,18.8     c11.6,11.6,18.8,27.6,18.8,45.6C240.6,262.4,245.4,267.2,251.4,267.2z M199,161.2c-6,6-14,9.6-22.8,9.6s-16.8-3.6-22.8-9.6     s-9.6-14-9.6-22.8c0-8.8,3.6-16.8,9.6-22.8s14-9.6,22.8-9.6s16.8,3.6,22.8,9.6s9.6,14,9.6,22.8C208.6,147.2,205,155.2,199,161.2z     " data-original="#000000" class="active-path" data-old_color="#000000" fill="#3880ff"/>
		</g>
	</g>
</g><link xmlns="" type="text/css" id="dark-mode" rel="stylesheet" class="active-path" style=""/><style xmlns="" type="text/css" id="dark-mode-custom-style" class="active-path"/><style xmlns="" type="text/css" id="dark-mode-theme-changer-style" class="active-path"/></g> </svg>
